<svg xmlns="http://www.w3.org/2000/svg" version="1.0" width="600.000000pt" height="600.000000pt" viewBox="0 0 600.000000 600.000000" preserveAspectRatio="xMidYMid meet">

<g transform="translate(0.000000,600.000000) scale(0.100000,-0.100000)" fill="#2196f3" stroke="none">
<path d="M985 5548 c-9 -243 -2 -5154 7 -5164 26 -25 258 -28 2003 -28 1758 0 1987 3 2013 29 4 4 7 881 7 1949 0 1647 -2 1945 -14 1960 -13 16 -160 121 -251 180 -77 50 -222 113 -300 132 -57 13 -134 18 -323 22 l-247 4 0 248 c0 260 -8 337 -49 452 -30 86 -96 213 -160 308 l-57 85 -1311 3 -1311 2 -7 -182z m2139 -622 c87 -51 136 -134 136 -231 0 -98 -49 -180 -139 -233 -39 -23 -57 -27 -121 -27 -89 1 -135 21 -197 87 -47 52 -67 103 -67 173 0 70 20 121 67 172 66 71 121 94 214 89 44 -3 75 -11 107 -30z m127 -1618 c-2 -769 -1 -841 15 -873 20 -43 66 -69 172 -96 42 -10 80 -25 84 -32 5 -6 7 -38 6 -70 l-3 -58 -525 0 -525 -1 -3 66 c-3 76 -2 77 99 95 76 14 133 44 163 84 21 28 21 34 21 680 0 687 -1 702 -45 742 -14 12 -50 21 -122 29 l-103 11 -3 68 c-2 37 1 67 5 67 72 0 707 110 721 125 4 3 15 5 25 3 19 -3 19 -22 18 -840z m-1655 -1893 c31 -9 63 -28 84 -50 33 -34 35 -39 35 -108 0 -84 -21 -123 -80 -151 l-36 -17 19 -32 c10 -18 44 -71 75 -119 l57 -88 -69 0 -70 0 -67 110 -67 110 -69 0 -68 0 0 -110 0 -110 -65 0 -65 0 0 283 c0 156 3 287 7 290 13 14 328 7 379 -8z m684 -35 l0 -50 -165 0 -165 0 0 -70 0 -70 155 0 155 0 0 -50 0 -50 -155 0 -155 0 0 -75 0 -75 175 0 175 0 0 -45 0 -45 -240 0 -240 0 0 283 c0 156 3 287 7 290 3 4 107 7 230 7 l223 0 0 -50z m438 23 c5 -16 47 -129 92 -253 45 -124 88 -242 96 -262 l13 -38 -62 0 -63 0 -23 70 -22 70 -113 0 -112 0 -23 -70 -22 -70 -60 0 c-32 0 -59 3 -59 8 0 4 46 134 102 290 l102 282 72 0 c70 0 72 -1 82 -27z m595 12 c72 -19 123 -52 158 -105 80 -119 51 -324 -56 -406 -60 -45 -98 -53 -262 -54 l-153 0 0 290 0 290 128 0 c81 0 149 -5 185 -15z m520 -180 c32 -104 62 -198 65 -207 5 -11 31 58 72 190 l65 207 83 3 82 3 0 -291 0 -290 -55 0 -55 0 -1 223 c-1 162 -3 213 -10 187 -6 -19 -37 -120 -70 -223 l-60 -188 -46 3 -46 3 -38 115 c-21 63 -51 158 -68 210 l-30 95 0 -212 -1 -213 -55 0 -55 0 0 290 0 291 82 -3 81 -3 60 -190z m937 145 l0 -50 -170 0 -170 0 0 -70 0 -70 155 0 155 0 0 -50 0 -50 -155 0 -155 0 0 -75 0 -75 180 0 180 0 0 -45 0 -45 -240 0 -240 0 0 290 0 290 230 0 230 0 0 -50z" fill="#2196f3"/>
<path d="M1340 1245 l0 -87 106 4 c102 3 107 4 130 31 29 34 31 76 5 108 -18 22 -28 24 -130 27 l-111 4 0 -87z" fill="#2196f3"/>
<path d="M2597 1211 c-20 -63 -35 -116 -33 -118 2 -2 37 -3 78 -1 l75 3 -41 115 -41 115 -38 -114z" fill="#2196f3"/>
<path d="M3120 1135 l0 -195 68 0 c129 1 190 54 199 174 9 103 -24 172 -94 202 -18 8 -64 14 -103 14 l-70 0 0 -195z" fill="#2196f3"/>
</g>
</svg>